<mxfile host="app.diagrams.net" agent="Mozilla/5.0 (Windows NT 10.0; Win64; x64) AppleWebKit/537.36 (KHTML, like Gecko) Chrome/129.0.0.0 Safari/537.36" version="24.7.17">
  <diagram name="Page-1" id="yaR9l1BQDg1tgNdgxOk3">
    <mxGraphModel dx="989" dy="514" grid="1" gridSize="10" guides="1" tooltips="1" connect="1" arrows="1" fold="1" page="1" pageScale="1" pageWidth="827" pageHeight="1169" math="0" shadow="0">
      <root>
        <mxCell id="0" />
        <mxCell id="1" parent="0" />
        <mxCell id="MXBAB2aG3aiAs-TaykSR-12" value="&lt;p style=&quot;margin:0px;margin-top:4px;text-align:center;&quot;&gt;&lt;i&gt;TrafficLight&lt;/i&gt;&lt;/p&gt;&lt;hr size=&quot;1&quot; style=&quot;border-style:solid;&quot;&gt;&lt;p style=&quot;margin:0px;margin-left:4px;&quot;&gt;- TimeGreen: int&lt;/p&gt;&lt;p style=&quot;margin:0px;margin-left:4px;&quot;&gt;- TimeRed: int&lt;/p&gt;&lt;p style=&quot;margin:0px;margin-left:4px;&quot;&gt;- TimeYellow: int&lt;/p&gt;&lt;p style=&quot;margin:0px;margin-left:4px;&quot;&gt;- TimeYellowRed: int&lt;br&gt;- TimeGreen: int&lt;/p&gt;&lt;p style=&quot;margin:0px;margin-left:4px;&quot;&gt;- PinRed: int&lt;/p&gt;&lt;p style=&quot;margin:0px;margin-left:4px;&quot;&gt;- PinYellow&lt;span style=&quot;background-color: initial;&quot;&gt;: int&lt;/span&gt;&lt;br&gt;&lt;/p&gt;&lt;p style=&quot;margin:0px;margin-left:4px;&quot;&gt;- PinGreen&lt;span style=&quot;background-color: initial;&quot;&gt;: int&lt;/span&gt;&lt;br&gt;&lt;/p&gt;&lt;p style=&quot;margin:0px;margin-left:4px;&quot;&gt;- NewState: int&lt;/p&gt;&lt;p style=&quot;margin:0px;margin-left:4px;&quot;&gt;- CurrentState: int&lt;/p&gt;&lt;p style=&quot;margin:0px;margin-left:4px;&quot;&gt;- CurrentStateTime: int&lt;/p&gt;&lt;hr size=&quot;1&quot; style=&quot;border-style:solid;&quot;&gt;&lt;p style=&quot;margin:0px;margin-left:4px;&quot;&gt;&lt;span style=&quot;background-color: initial;&quot;&gt;+GoTrafficLight (): void&lt;/span&gt;&lt;br&gt;&lt;/p&gt;&lt;p style=&quot;margin:0px;margin-left:4px;&quot;&gt;+SetTimeRed(time:int):void&lt;/p&gt;&lt;p style=&quot;margin:0px;margin-left:4px;&quot;&gt;+SetTimeYellow(time:int):void&lt;/p&gt;&lt;p style=&quot;margin:0px;margin-left:4px;&quot;&gt;+SetTimeYellowRed(time:int):void&lt;br&gt;+SetTimeGreen(time: int):void&lt;/p&gt;&lt;p style=&quot;margin:0px;margin-left:4px;&quot;&gt;+SetPinRed(pin: int):void&lt;/p&gt;&lt;p style=&quot;margin:0px;margin-left:4px;&quot;&gt;+SetPinGreen&lt;span style=&quot;background-color: initial;&quot;&gt;(pin: int):void&lt;/span&gt;&lt;br&gt;&lt;/p&gt;&lt;p style=&quot;margin:0px;margin-left:4px;&quot;&gt;+SetPinYellow&lt;span style=&quot;background-color: initial;&quot;&gt;(pin: int):void&lt;/span&gt;&lt;br&gt;&lt;/p&gt;&lt;p style=&quot;margin:0px;margin-left:4px;&quot;&gt;+GetTimeRed():int&lt;/p&gt;&lt;p style=&quot;margin:0px;margin-left:4px;&quot;&gt;+GetTimeYellow():int&lt;/p&gt;&lt;p style=&quot;margin:0px;margin-left:4px;&quot;&gt;+GetTimeYellowRed():int&lt;/p&gt;&lt;p style=&quot;margin:0px;margin-left:4px;&quot;&gt;+GetTimeGreen():int&lt;/p&gt;&lt;p style=&quot;margin:0px;margin-left:4px;&quot;&gt;-NextState():void&lt;/p&gt;&lt;p style=&quot;margin:0px;margin-left:4px;&quot;&gt;-TurnOnYellow():void&lt;/p&gt;&lt;p style=&quot;margin:0px;margin-left:4px;&quot;&gt;-TurnOnRed():void&lt;/p&gt;&lt;p style=&quot;margin:0px;margin-left:4px;&quot;&gt;-TurnOnYellowRed():void&lt;/p&gt;&lt;p style=&quot;margin:0px;margin-left:4px;&quot;&gt;-TurnOnGreen():void&lt;/p&gt;&lt;p style=&quot;margin:0px;margin-left:4px;&quot;&gt;-GetTime():state&lt;/p&gt;&lt;p style=&quot;margin:0px;margin-left:4px;&quot;&gt;-ChangeColour(): void&lt;br&gt;-CheckTime(): void&lt;/p&gt;&lt;p style=&quot;margin:0px;margin-left:4px;&quot;&gt;&lt;br&gt;&lt;/p&gt;" style="verticalAlign=top;align=left;overflow=fill;html=1;whiteSpace=wrap;" vertex="1" parent="1">
          <mxGeometry x="140" y="230" width="310" height="490" as="geometry" />
        </mxCell>
      </root>
    </mxGraphModel>
  </diagram>
</mxfile>
